<svg width="130" height="32" fill="none" xmlns="http://www.w3.org/2000/svg"><path d="M125.675 26.042c-5.767 0-5.767-8.777 0-8.777 5.767-.046 5.767 8.777 0 8.777zm-3.241-4.366c0 1.728 1.335 3.366 3.241 3.366 1.906 0 3.241-1.683 3.241-3.411 0-1.729-1.335-3.412-3.241-3.412-1.906 0-3.241 1.729-3.241 3.457zm-1.859-3.366c-4.336.137-3.288 4.776-3.288 7.55h-1.144v-8.505h1.096v2.002c.477-.956 1.335-1.774 2.431-2.002 1.096-.227.905.091.905.955zm-14.869 7.55V14.217h5.052c3.813 0 4.909 5.367 1.62 7.004-1.477.728-3.86.319-5.48.319v4.229c0 .182-1.001.091-1.192.091zm1.192-5.321h3.908c2.668 0 3.05-3.73 1.143-4.957-1.096-.683-3.097-.364-4.337-.364-.238 0-.714-.137-.714.136v5.186z" fill="#79BD1B"/><path d="M99.606 25.496c-1.144.41-3.193 1.046-3.813-.5-.238-.591-.095-1.364-.095-1.956v-4.82h-1.24v-.865h1.24V14.49h1.144v2.865h2.049v.864h-2.05v5.822c.096 1.137 1.716 1.091 2.431.546.143.318.239.636.334.91zm-9.627.546c-1.096 0-2.192-.273-3.098-.864-.763-.546-.524-.637-.095-1.274 1.096.956 4.86 2.366 5.433.091.476-1.91-3.384-1.955-4.528-2.637-.905-.546-1.096-1.729-.62-2.638.477-.91 1.621-1.32 2.622-1.41 1.048-.091 2.145.09 3.002.682.763.5.477.637 0 1.228-.905-1-2.716-1.364-3.955-.773-.62.273-.906.864-.81 1.5.142.728 1.048.91 1.668 1.092 1.43.41 3.812.682 3.812 2.547 0 1.728-1.81 2.456-3.431 2.456zm-6.672-10.506V13.9h1.144v1.455c.047.364-.81.182-1.144.182zm0 10.324v-8.55h1.144v7.959c.047.864-.286.591-1.144.591zm-1.573-7.55c-4.337.137-3.288 4.776-3.288 7.55h-1.144v-8.505h1.096v2.002c.477-.956 1.334-1.774 2.43-2.002 1.097-.227.906.091.906.955zm-14.726 4.048v-5.003h1.143v4.776c0 1.546.62 3.138 2.526 2.865 1.192-.182 2.764-1.273 2.764-2.547v-5.14h1.144v7.141c0 .5.43.273.43.683v.636c-1.478.091-1.43-.864-1.43-1.91-.858 1.455-2.765 2.41-4.528 2.001-1.668-.273-2.05-2.046-2.05-3.502zm-6.291 3.684c-5.767 0-5.767-8.777 0-8.777 5.766-.046 5.766 8.777 0 8.777zm-3.241-4.366c0 1.728 1.334 3.366 3.24 3.366 1.907 0 3.242-1.683 3.242-3.411 0-1.729-1.335-3.412-3.241-3.412-1.907 0-3.241 1.729-3.241 3.457zm-.238-6.413H52.9V25.86h-1.192V15.263h-4.337v-1h9.056c.953-.046.81-.046.81 1zM24.544 5.53c-.905 0-1.763.273-2.478.728l-.763-.864.906-2.592 1.525-.137c.62-.045.524-1-.095-.955l-4.004.364c-.62.045-.524 1 .096.955l1.382-.136-.715 2-5.72-1.591.24-.546c.094-.227 0-.546-.287-.637l-1-.363-.334-1.41c-.143-.591-1.096-.364-.954.227l.43 1.637c.047.137.142.273.285.319l.763.318-1.335 2.865c-2.907-.864-5.91 1.456-5.623 4.367.286 2.774 3.431 4.502 6.1 3.365 1.382-.591 2.335-1.865 2.526-3.275.19-1.591-.62-3.229-2.097-4.047l.763-1.592 4.765 5.594c.096.091.239.273.382.273h.953c.333 2.729 3.574 4.366 6.243 3.092 2.574-1.227 3.193-4.684 1.144-6.685-.81-.773-1.907-1.274-3.098-1.274zM14.536 9.67c0 1.318-.906 2.546-2.192 3-1.335.456-2.86.046-3.718-.954a3.109 3.109 0 01-.286-3.684c.763-1.228 2.335-1.82 3.765-1.41l-1.334 2.865c-.239.546.62.955.905.364l1.335-2.865a3.144 3.144 0 011.525 2.683zm8.96-.228h-2.24c.095-.455.38-1.137.762-1.592l1.478 1.592zM21.35 6.986c-.62.637-1 1.546-1.096 2.456h-.286l1-2.82.382.364zm-1.24-1.183L19.064 8.67l-3.67-4.185 4.719 1.32zm4.433 7.14c-1.668 0-3.05-1.227-3.288-2.592h3.288c.429 0 .667-.59.381-.91l-2.192-2.455c1.906-1.137 4.48-.137 5.052 1.91.572 2.047-1.096 4.048-3.24 4.048z" fill="#fff"/><path d="M0 13.944L18.92 32s.858-29.38 18.92-18.056" fill="#79BD1B"/></svg>