<svg width="130" height="32" viewBox="0 0 130 32" fill="none" xmlns="http://www.w3.org/2000/svg">
<path d="M125.675 26.0421C119.908 26.0421 119.908 17.2645 125.675 17.2645C131.442 17.219 131.442 26.0421 125.675 26.0421ZM122.434 21.676C122.434 23.4043 123.769 25.0416 125.675 25.0416C127.581 25.0416 128.916 23.3588 128.916 21.6306C128.916 19.9023 127.581 18.2195 125.675 18.2195C123.769 18.2195 122.434 19.9478 122.434 21.676Z" fill="#79BD1B"/>
<path d="M120.575 18.3104C116.239 18.4469 117.287 23.0858 117.287 25.8601H116.143V17.3553H117.239V19.3565C117.716 18.4014 118.574 17.5827 119.67 17.3553C120.766 17.1279 120.575 17.4463 120.575 18.3104Z" fill="#79BD1B"/>
<path d="M105.706 25.8602V14.2173H110.758C114.571 14.2173 115.667 19.5839 112.378 21.2212C110.901 21.9489 108.518 21.5396 106.898 21.5396C106.898 22.4947 106.898 23.4497 106.898 24.4048C106.898 24.8596 106.898 25.3144 106.898 25.7692C106.898 25.9512 105.897 25.8602 105.706 25.8602ZM106.898 20.539H110.806C113.474 20.539 113.856 16.8096 111.949 15.5817C110.853 14.8995 108.852 15.2178 107.612 15.2178C107.374 15.2178 106.898 15.0814 106.898 15.3543C106.898 15.9455 106.898 16.5367 106.898 17.128C106.898 18.3105 106.898 19.402 106.898 20.539Z" fill="#79BD1B"/>
<path d="M99.6059 25.4963C98.4621 25.9057 96.4128 26.5424 95.7932 24.996C95.5549 24.4048 95.6979 23.6316 95.6979 23.0404C95.6979 21.4486 95.6979 19.8113 95.6979 18.2195H94.4588V17.3554H95.6979V14.4901H96.8417V17.3554H98.891V18.2195H96.8417V24.041C96.937 25.178 98.5574 25.1325 99.2723 24.5867C99.4153 24.9051 99.5106 25.2234 99.6059 25.4963Z" fill="white"/>
<path d="M89.9789 26.0421C88.8827 26.0421 87.7866 25.7692 86.8811 25.178C86.1185 24.6322 86.3568 24.5413 86.7858 23.9045C87.8819 24.8596 91.6469 26.2695 92.2188 23.9955C92.6954 22.0853 88.8351 22.0398 87.6913 21.3576C86.7858 20.8119 86.5951 19.6294 87.0717 18.7198C87.5483 17.8102 88.6921 17.4009 89.6929 17.3099C90.7414 17.2189 91.8376 17.4009 92.6954 17.9921C93.4579 18.4924 93.172 18.6288 92.6954 19.2201C91.7899 18.2195 89.9789 17.8557 88.7398 18.4469C88.1202 18.7198 87.8342 19.311 87.9296 19.9477C88.0725 20.6754 88.978 20.8574 89.5976 21.0393C91.0274 21.4486 93.4103 21.7215 93.4103 23.5862C93.4103 25.3144 91.5993 26.0421 89.9789 26.0421Z" fill="white"/>
<path d="M83.3067 15.5362V13.8989H84.4505C84.4505 14.3992 84.4505 14.8995 84.4505 15.3543C84.4982 15.7181 83.6403 15.5362 83.3067 15.5362ZM83.3067 25.8602V17.3099H84.4505C84.4505 19.0382 84.4505 20.7209 84.4505 22.4492C84.4505 23.4043 84.4505 24.3139 84.4505 25.269C84.4982 26.1331 84.1646 25.8602 83.3067 25.8602Z" fill="white"/>
<path d="M81.734 18.3104C77.3971 18.4469 78.4456 23.0858 78.4456 25.8601H77.3018V17.3553H78.3979V19.3565C78.8745 18.4014 79.7323 17.5827 80.8285 17.3553C81.9246 17.1279 81.734 17.4463 81.734 18.3104Z" fill="white"/>
<path d="M67.0076 22.3582V17.3554H68.1514V22.1308C68.1514 23.6771 68.771 25.2689 70.6773 24.9961C71.8687 24.8141 73.4415 23.7226 73.4415 22.4492C73.4415 20.7209 73.4415 19.0382 73.4415 17.3099H74.5853V24.4503C74.5853 24.9506 75.0142 24.7232 75.0142 25.1325C75.0142 25.3599 75.0142 25.5873 75.0142 25.7692C73.5368 25.8602 73.5844 24.9051 73.5844 23.8591C72.7266 25.3144 70.8203 26.2695 69.0569 25.8602C67.3889 25.5873 67.0076 23.8136 67.0076 22.3582Z" fill="white"/>
<path d="M60.7167 26.0421C54.9501 26.0421 54.9501 17.2645 60.7167 17.2645C66.4834 17.219 66.4834 26.0421 60.7167 26.0421ZM57.4759 21.676C57.4759 23.4043 58.8104 25.0416 60.7167 25.0416C62.623 25.0416 63.9575 23.3588 63.9575 21.6306C63.9575 19.9023 62.623 18.2195 60.7167 18.2195C58.8104 18.2195 57.4759 19.9478 57.4759 21.676Z" fill="white"/>
<path d="M57.2376 15.2633H52.9007V25.8602H51.7093V15.2633H47.3724V14.2628C49.2787 14.2628 51.185 14.2628 53.0914 14.2628C54.1875 14.2628 55.2837 14.2628 56.4275 14.2628C57.3806 14.2173 57.2376 14.2173 57.2376 15.2633Z" fill="white"/>
<path d="M24.5441 5.5305C23.6386 5.5305 22.7807 5.80338 22.0658 6.25818L21.3033 5.39405L22.2088 2.80168L23.7339 2.66524C24.3534 2.61976 24.2581 1.66467 23.6386 1.71015L19.6353 2.074C19.0157 2.11948 19.111 3.07456 19.7306 3.02908L21.1127 2.89264L20.3978 4.89377L14.6788 3.30196L14.9171 2.7562C15.0124 2.5288 14.9171 2.21044 14.6311 2.11948L13.6303 1.75563L13.2967 0.345746C13.1537 -0.245495 12.2006 -0.0180938 12.3435 0.573148L12.7725 2.21044C12.8201 2.34688 12.9154 2.48332 13.0584 2.5288L13.821 2.84716L12.4865 5.71242C9.57936 4.84829 6.57689 7.16778 6.86284 10.0785C7.14879 12.8528 10.2942 14.5811 12.9631 13.4441C14.3452 12.8528 15.2984 11.5794 15.489 10.1695C15.6796 8.57767 14.8694 6.94038 13.392 6.12174L14.1546 4.52993L18.9204 10.124C19.0157 10.215 19.1587 10.3969 19.3017 10.3969H20.2548C20.5884 13.1257 23.8292 14.763 26.4981 13.4895C29.0716 12.2616 29.6912 8.80507 27.6419 6.80394C26.8317 6.03078 25.7355 5.5305 24.5441 5.5305ZM14.5358 9.6692C14.5358 10.9881 13.6303 12.2161 12.3435 12.6709C11.0091 13.1257 9.48405 12.7164 8.6262 11.7158C7.72069 10.6698 7.62537 9.16892 8.34025 8.03191C9.10278 6.80394 10.6755 6.2127 12.1053 6.62202L10.7708 9.48728C10.5325 10.033 11.3904 10.4424 11.6763 9.85112L13.0108 6.98586C13.9163 7.53163 14.5358 8.53219 14.5358 9.6692ZM23.4956 9.4418H21.2556C21.351 8.98699 21.6369 8.30479 22.0182 7.84999L23.4956 9.4418ZM21.351 6.98586C20.7314 7.62259 20.3501 8.53219 20.2548 9.4418H19.9689L20.9697 6.62202L21.351 6.98586ZM20.1119 5.80338L19.0634 8.66863L15.3937 4.48445L20.1119 5.80338ZM24.5441 12.9438C22.876 12.9438 21.4939 11.7158 21.2556 10.3514H24.5441C24.973 10.3514 25.2113 9.76016 24.9253 9.4418L22.7331 6.98586C24.6394 5.84886 27.2129 6.84942 27.7848 8.89603C28.3567 10.9426 26.6887 12.9438 24.5441 12.9438Z" fill="white"/>
<path d="M0 13.9443L18.9204 32C18.9204 32 19.7782 2.61976 37.8407 13.9443" fill="#79BD1B"/>
</svg>
